<svg width="50" height="50" viewBox="0 0 50 50" fill="none" xmlns="http://www.w3.org/2000/svg">
<rect width="50" height="50" rx="2" fill="#282828"/>
<path d="M12.6808 31.6512L12.6808 24.4113H33.325C34.1524 24.4113 34.8419 24.2872 35.3935 24.039C35.9727 23.7632 36.2623 23.1978 36.2623 22.3428C36.2623 21.4602 35.9727 20.8948 35.3935 20.6465C34.8419 20.3983 34.1524 20.2742 33.325 20.2742H13.3428L13.3428 38.4775H3L3 12L31.7115 12C33.78 12 35.7107 12.1517 37.5034 12.4551C39.3238 12.7309 40.9096 13.2411 42.2611 13.9858C43.6125 14.7305 44.6744 15.7786 45.4467 17.13C46.2189 18.4815 46.6051 20.219 46.6051 22.3428C46.6051 24.4665 46.2189 26.1489 45.4467 27.39C44.6744 28.6312 43.6125 29.5551 42.2611 30.1619C40.9096 30.7687 39.3238 31.1686 37.5034 31.3616C35.7107 31.5547 33.78 31.6512 31.7115 31.6512H12.6808Z" fill="white"/>
</svg>
