<svg width="132" height="24" viewBox="0 0 132 24" fill="none" xmlns="http://www.w3.org/2000/svg">
<path d="M6.83027 17.9881V12.88H21.3957C21.9795 12.88 22.4659 12.7924 22.8551 12.6173C23.2638 12.4227 23.4681 12.0238 23.4681 11.4205C23.4681 10.7978 23.2638 10.3989 22.8551 10.2238C22.4659 10.0486 21.9795 9.96108 21.3957 9.96108H7.2973V22.8043H0V4.12324H20.2573C21.7168 4.12324 23.0789 4.23027 24.3438 4.44433C25.6281 4.63892 26.747 4.99892 27.7005 5.52433C28.6541 6.04973 29.4032 6.78919 29.9481 7.7427C30.493 8.69622 30.7654 9.92216 30.7654 11.4205C30.7654 12.9189 30.493 14.1059 29.9481 14.9816C29.4032 15.8573 28.6541 16.5092 27.7005 16.9373C26.747 17.3654 25.6281 17.6476 24.3438 17.7838C23.0789 17.92 21.7168 17.9881 20.2573 17.9881H6.83027Z" fill="white"/>
<path d="M32.9475 9.3773H51.4535V13.7557H32.9475V9.3773ZM44.7108 2.66378H51.4535V7.33405H47.6297C46.8513 7.3146 46.2481 7.35351 45.82 7.45081C45.4113 7.54811 45.1194 7.7427 44.9443 8.03459C44.7886 8.32649 44.7108 8.77405 44.7108 9.3773V22.8043H37.7054V7.91784C37.7054 6.75027 37.9194 5.7773 38.3475 4.99892C38.7951 4.22054 39.5248 3.63676 40.5367 3.24757C41.5681 2.85838 42.9594 2.66378 44.7108 2.66378Z" fill="white"/>
<path d="M66.9187 23.2422C63.8247 23.2422 61.2463 22.9892 59.1836 22.4832C57.1404 21.9773 55.6031 21.1697 54.5717 20.0605C53.5598 18.9514 53.0539 17.4919 53.0539 15.6822C53.0539 13.8724 53.5598 12.413 54.5717 11.3038C55.6031 10.1751 57.1404 9.35784 59.1836 8.85189C61.2463 8.32649 63.8247 8.06379 66.9187 8.06379C69.9933 8.06379 72.5425 8.32649 74.5663 8.85189C76.6095 9.35784 78.1371 10.1751 79.149 11.3038C80.1609 12.413 80.6668 13.8724 80.6668 15.6822C80.6668 17.4919 80.1609 18.9514 79.149 20.0605C78.1371 21.1697 76.6095 21.9773 74.5663 22.4832C72.5425 22.9892 69.9933 23.2422 66.9187 23.2422ZM66.9187 19.0097C68.3587 19.0097 69.5652 18.893 70.5382 18.6595C71.5112 18.4065 72.2506 18.0368 72.7566 17.5503C73.2625 17.0443 73.5155 16.4216 73.5155 15.6822C73.5155 14.9427 73.2625 14.32 72.7566 13.8141C72.2701 13.3081 71.5403 12.9286 70.5674 12.6757C69.5944 12.4227 68.3782 12.2962 66.9187 12.2962C65.4787 12.2962 64.2528 12.4227 63.2409 12.6757C62.2485 12.9286 61.4895 13.3081 60.9641 13.8141C60.4582 14.3005 60.2052 14.9232 60.2052 15.6822C60.2052 16.4216 60.4582 17.0443 60.9641 17.5503C61.4701 18.0368 62.2193 18.4065 63.2117 18.6595C64.2236 18.893 65.4593 19.0097 66.9187 19.0097Z" fill="white"/>
<path d="M83.4289 2.66378H90.4343V22.8043H83.4289V2.66378Z" fill="white"/>
<path d="M101.215 1V5.37838H93.8013V1H101.215ZM94.0056 8.50162H101.011V22.8043H94.0056V8.50162Z" fill="white"/>
<path d="M117.715 23.2422C114.621 23.2422 112.042 22.9892 109.98 22.4832C107.936 21.9773 106.399 21.1697 105.368 20.0605C104.356 18.9514 103.85 17.4919 103.85 15.6822C103.85 13.8724 104.356 12.413 105.368 11.3038C106.399 10.1751 107.936 9.35784 109.98 8.85189C112.042 8.32649 114.621 8.06379 117.715 8.06379C120.789 8.06379 123.339 8.32649 125.362 8.85189C127.406 9.35784 128.933 10.1751 129.945 11.3038C130.957 12.413 131.463 13.8724 131.463 15.6822C131.463 17.4919 130.957 18.9514 129.945 20.0605C128.933 21.1697 127.406 21.9773 125.362 22.4832C123.339 22.9892 120.789 23.2422 117.715 23.2422ZM117.715 19.0097C119.155 19.0097 120.361 18.893 121.334 18.6595C122.307 18.4065 123.047 18.0368 123.553 17.5503C124.059 17.0443 124.312 16.4216 124.312 15.6822C124.312 14.9427 124.059 14.32 123.553 13.8141C123.066 13.3081 122.336 12.9286 121.363 12.6757C120.39 12.4227 119.174 12.2962 117.715 12.2962C116.275 12.2962 115.049 12.4227 114.037 12.6757C113.044 12.9286 112.286 13.3081 111.76 13.8141C111.254 14.3005 111.001 14.9232 111.001 15.6822C111.001 16.4216 111.254 17.0443 111.76 17.5503C112.266 18.0368 113.015 18.4065 114.008 18.6595C115.02 18.893 116.255 19.0097 117.715 19.0097Z" fill="white"/>
</svg>
